<?xml version="1.0" encoding="UTF-8" standalone="no"?>
<!DOCTYPE svg PUBLIC "-//W3C//DTD SVG 1.1//EN" "http://www.w3.org/Graphics/SVG/1.1/DTD/svg11.dtd">
<svg xmlns="http://www.w3.org/2000/svg" version="1.1" viewBox="0.00 0.00 896.00 896.00">
<g stroke-width="2.00" fill="none" stroke-linecap="butt">
<path stroke="#026969" vector-effect="non-scaling-stroke" d="
  M 434.20 501.83
  Q 431.75 501.28 429.52 499.99
  Q 413.76 490.89 403.82 485.75
  Q 401.56 484.58 401.55 481.98
  Q 401.25 400.78 401.77 313.89
  Q 401.83 303.69 400.39 299.96
  Q 397.63 292.76 390.10 288.61
  Q 353.97 268.72 289.30 230.62
  Q 285.13 228.16 283.27 228.03
  Q 274.51 227.40 271.38 233.45
  Q 269.82 236.44 269.83 244.42
  Q 269.87 287.50 269.79 418.12
  C 269.79 428.67 271.23 435.63 280.87 440.80
  Q 303.43 452.91 326.28 466.47
  C 332.13 469.94 339.31 471.72 343.89 465.88
  Q 346.35 462.74 346.38 457.80
  Q 346.58 429.37 346.77 385.07
  Q 346.77 383.97 347.86 383.82
  Q 360.24 382.10 365.72 372.19
  C 369.73 364.92 369.75 353.10 367.87 345.59
  Q 361.99 322.13 341.76 308.66
  Q 329.37 300.42 316.19 304.69
  Q 311.46 306.22 307.33 311.22
  C 303.15 316.27 302.07 324.79 302.43 331.27
  C 303.33 347.90 310.50 360.66 322.63 372.59
  C 324.15 374.08 324.22 375.17 324.28 377.50
  Q 325.04 408.17 325.00 438.46
  Q 325.00 439.76 323.86 439.13
  L 293.66 422.40
  A 2.63 2.62 14.6 0 1 292.31 420.11
  L 292.31 258.98
  A 0.58 0.57 -82.7 0 1 293.03 258.42
  Q 294.00 258.68 294.69 259.07
  Q 329.11 278.49 377.34 306.81
  A 3.26 3.26 0.0 0 1 378.94 309.60
  Q 379.18 370.49 379.14 486.25
  Q 379.13 497.71 388.99 502.97
  C 405.81 511.95 420.56 520.39 439.63 531.39
  Q 441.69 532.58 445.08 533.52"
/>
<path stroke="#62803c" vector-effect="non-scaling-stroke" d="
  M 445.08 533.52
  Q 447.15 533.40 449.04 532.29
  Q 469.45 520.33 495.45 505.78
  Q 503.82 501.10 506.05 498.45
  Q 510.38 493.31 510.41 485.53
  Q 510.65 399.90 510.34 318.26
  Q 510.32 313.68 510.46 310.11
  A 3.77 3.76 76.3 0 1 512.34 307.01
  L 595.71 258.87
  Q 597.20 258.01 597.20 259.74
  L 597.20 418.83
  A 3.12 3.12 0.0 0 1 595.64 421.53
  L 566.75 438.21
  Q 565.77 438.78 565.77 437.65
  L 565.77 375.34
  A 3.41 3.37 -22.6 0 1 566.78 372.93
  Q 573.22 366.51 577.85 360.36
  Q 588.41 346.38 587.46 327.78
  Q 586.97 318.24 581.84 311.13
  C 577.49 305.10 568.81 301.67 560.84 303.15
  C 551.49 304.90 543.20 310.35 536.62 317.36
  Q 522.59 332.30 520.82 352.28
  C 519.89 362.74 522.19 374.37 531.42 380.26
  C 534.35 382.13 537.64 382.81 541.59 383.68
  A 0.80 0.79 4.4 0 1 542.21 384.40
  C 543.05 398.58 542.59 421.75 542.58 457.50
  Q 542.58 463.43 546.42 467.17
  C 550.16 470.81 556.45 470.89 560.64 468.40
  Q 581.60 455.94 606.03 441.96
  C 614.23 437.26 619.44 433.25 619.47 423.88
  Q 619.78 336.44 619.56 240.26
  C 619.54 230.33 610.78 223.30 601.36 228.90
  Q 586.22 237.89 510.25 281.92
  C 506.51 284.09 503.22 285.28 499.49 287.21
  Q 487.83 293.23 487.84 307.04
  Q 487.92 379.31 487.67 482.30
  A 2.88 2.87 75.4 0 1 486.22 484.78
  L 455.94 502.02"
/>
<path stroke="#818c93" vector-effect="non-scaling-stroke" d="
  M 455.94 502.02
  Q 456.06 400.06 456.01 298.25
  Q 456.00 291.31 453.00 287.40
  Q 450.98 284.79 444.42 281.17
  Q 432.20 274.43 423.13 269.21
  Q 349.87 227.08 306.28 202.20
  Q 305.22 201.59 304.38 200.93
  A 0.67 0.67 0.0 0 1 304.46 199.84
  Q 318.23 191.60 326.98 186.26
  C 330.47 184.13 333.51 181.83 337.09 182.83
  Q 339.33 183.46 341.90 184.97
  Q 361.27 196.39 380.14 207.38
  Q 442.86 243.88 458.61 252.90
  Q 468.55 258.59 486.91 269.64
  Q 496.24 275.26 506.62 271.33
  Q 511.19 269.60 515.66 266.89
  C 534.08 255.73 554.88 243.93 574.90 232.20
  Q 590.75 222.91 611.06 211.54
  C 619.58 206.77 622.21 197.65 613.94 191.04
  Q 612.67 190.02 609.09 187.95
  Q 585.66 174.42 551.05 154.50
  Q 487.90 118.16 479.07 112.94
  Q 466.22 105.33 455.32 98.48
  C 446.52 92.95 439.63 95.33 431.40 100.17
  Q 418.41 107.81 387.33 126.40
  C 382.30 129.41 379.18 132.02 379.28 137.80
  Q 379.37 143.91 385.29 147.33
  Q 423.65 169.46 447.39 183.91
  Q 448.58 184.63 447.95 185.87
  C 440.83 199.96 450.11 212.28 462.60 218.41
  C 476.17 225.07 491.88 225.57 506.33 221.61
  C 516.84 218.73 528.07 211.02 530.68 199.98
  Q 532.75 191.21 528.99 184.23
  C 524.99 176.83 515.05 170.83 506.89 168.42
  Q 488.32 162.92 467.28 168.75
  Q 466.82 168.88 466.37 168.72
  Q 464.00 167.84 461.00 166.04
  Q 438.38 152.50 417.82 140.64
  Q 415.77 139.46 413.52 137.79
  A 0.66 0.66 0.0 0 1 413.57 136.70
  Q 425.60 129.35 440.03 121.27
  Q 440.99 120.73 444.75 119.18
  Q 445.24 118.98 445.73 119.15
  Q 447.53 119.78 448.85 120.57
  C 477.47 137.53 508.83 154.98 534.49 170.35
  C 551.31 180.41 568.74 190.23 584.71 200.05
  A 0.57 0.57 0.0 0 1 584.78 200.97
  Q 584.34 201.34 583.22 201.98
  Q 544.56 223.87 514.44 242.07
  C 508.98 245.36 502.94 249.68 496.25 248.35
  Q 493.93 247.89 489.11 245.07
  Q 424.84 207.43 347.14 162.36
  Q 335.24 155.46 323.43 162.42
  Q 287.27 183.72 277.65 189.34
  Q 273.74 191.62 272.42 193.39
  C 268.64 198.42 270.00 205.58 275.01 209.32
  Q 276.31 210.29 278.35 211.45
  C 328.10 239.69 378.59 269.06 430.70 299.56
  Q 432.42 300.57 432.97 301.14
  Q 433.33 301.51 433.41 302.02
  Q 433.69 303.91 433.67 307.52
  Q 433.23 386.93 433.56 480.25
  Q 433.61 494.36 434.20 501.83"
/>
<path stroke="#e0f3a8" vector-effect="non-scaling-stroke" d="
  M 455.94 502.02
  L 445.31 508.11"
/>
<path stroke="#80dcd5" vector-effect="non-scaling-stroke" d="
  M 445.31 508.11
  L 434.20 501.83"
/>
<path stroke="#61cf7e" vector-effect="non-scaling-stroke" d="
  M 445.08 533.52
  L 445.31 508.11"
/>
<path stroke="#818c93" vector-effect="non-scaling-stroke" d="
  M 88.60 626.19
  A 0.35 0.35 0.0 0 0 88.95 626.54
  L 106.96 626.54
  A 0.35 0.35 0.0 0 1 107.31 626.89
  L 107.31 686.68
  A 0.35 0.35 0.0 0 0 107.66 687.03
  L 116.62 687.03
  A 0.35 0.35 0.0 0 0 116.97 686.68
  L 116.97 626.94
  A 0.35 0.35 0.0 0 1 117.32 626.59
  L 134.60 626.59
  A 0.35 0.35 0.0 0 0 134.95 626.24
  L 134.95 616.91
  A 0.35 0.35 0.0 0 0 134.60 616.56
  L 88.95 616.56
  A 0.35 0.35 0.0 0 0 88.60 616.91
  L 88.60 626.19"
/>
<path stroke="#818c93" vector-effect="non-scaling-stroke" d="
  M 294.5242 616.7646
  A 0.34 0.34 0.0 0 0 294.1865 616.4223
  L 285.1868 616.3594
  A 0.34 0.34 0.0 0 0 284.8444 616.6971
  L 284.3558 686.6754
  A 0.34 0.34 0.0 0 0 284.6935 687.0177
  L 293.6932 687.0806
  A 0.34 0.34 0.0 0 0 294.0356 686.7429
  L 294.5242 616.7646"
/>
<path stroke="#818c93" vector-effect="non-scaling-stroke" d="
  M 573.90 668.73
  L 573.90 633.83
  A 0.70 0.69 67.2 0 1 574.09 633.35
  L 579.94 627.07
  A 2.97 2.92 -68.8 0 1 582.02 626.13
  Q 586.13 626.00 592.13 626.21
  C 593.86 626.26 594.22 628.31 595.05 629.28
  Q 597.96 632.70 601.92 637.03
  A 0.95 0.94 46.0 0 0 603.28 637.06
  L 609.82 630.52
  A 0.48 0.47 -44.1 0 0 609.84 629.86
  L 598.98 617.73
  Q 597.69 616.29 595.76 616.32
  L 578.93 616.51
  A 3.87 3.85 24.2 0 0 576.47 617.44
  L 565.15 627.14
  A 2.81 2.76 70.3 0 0 564.18 629.24
  Q 564.10 643.84 564.06 671.47
  C 564.06 673.76 564.97 674.76 566.48 676.36
  Q 571.68 681.86 576.03 686.26
  A 2.59 2.55 67.4 0 0 577.86 687.03
  L 596.78 687.03
  Q 597.31 687.03 597.68 686.63
  L 609.83 673.61
  Q 610.22 673.19 609.81 672.77
  L 603.16 666.12
  A 0.48 0.48 0.0 0 0 602.47 666.13
  L 592.78 676.54
  A 2.70 2.66 21.1 0 1 590.85 677.38
  L 582.01 677.49
  A 0.49 0.47 -20.9 0 1 581.66 677.34
  L 574.50 670.18
  A 2.05 2.05 0.0 0 1 573.90 668.73"
/>
<path stroke="#818c93" vector-effect="non-scaling-stroke" d="
  M 788.01 627.07
  L 779.18 639.02
  Q 778.77 639.58 779.26 640.08
  L 789.22 650.03
  Q 789.90 650.71 789.89 651.68
  Q 789.88 653.96 789.94 667.80
  C 789.96 670.48 784.62 674.96 782.57 676.86
  A 0.82 0.81 44.7 0 1 781.46 676.86
  L 770.66 666.79
  A 0.53 0.53 0.0 0 0 769.89 666.84
  L 764.46 673.44
  Q 764.18 673.78 764.49 674.10
  L 776.33 686.65
  A 0.77 0.77 0.0 0 0 776.90 686.90
  L 786.33 686.90
  Q 786.88 686.90 787.31 686.55
  Q 792.75 682.13 797.99 676.24
  Q 799.52 674.51 799.57 673.25
  Q 800.02 662.22 799.47 646.85
  Q 799.45 646.27 799.04 645.86
  L 792.16 638.98
  A 0.72 0.71 42.2 0 1 792.11 638.02
  L 799.33 629.24
  Q 799.63 628.88 799.63 628.42
  L 799.63 616.76
  Q 799.63 616.14 799.01 616.14
  L 763.55 616.55
  Q 762.93 616.56 762.94 617.18
  L 763.03 625.40
  Q 763.04 626.05 763.68 626.05
  L 787.50 626.05
  A 0.64 0.64 0.0 0 1 788.01 627.07"
/>
<path stroke="#818c93" vector-effect="non-scaling-stroke" d="
  M 223.28 643.20
  L 247.78 643.20
  A 0.82 0.82 0.0 0 1 248.60 644.02
  L 248.60 686.80
  Q 248.60 687.03 248.82 687.03
  L 257.82 687.03
  A 0.32 0.32 0.0 0 0 258.14 686.71
  L 258.14 629.50
  A 1.54 1.54 0.0 0 0 257.60 628.33
  Q 250.93 622.64 245.98 617.77
  Q 245.89 617.68 244.84 617.09
  Q 244.47 616.89 244.04 616.89
  L 213.49 616.89
  Q 212.86 616.89 212.86 617.51
  L 212.86 686.67
  Q 212.86 687.00 213.19 687.00
  L 222.18 687.00
  Q 222.42 687.00 222.42 686.76
  L 222.42 644.07
  A 0.87 0.86 90.0 0 1 223.28 643.20"
/>
<path stroke="#818c93" vector-effect="non-scaling-stroke" d="
  M 647.88 617.18
  L 636.47 629.42
  A 1.33 1.31 67.1 0 0 636.11 630.33
  Q 636.01 665.72 636.15 671.74
  Q 636.20 673.84 637.62 675.47
  Q 642.65 681.27 648.25 686.73
  Q 648.64 687.11 649.18 687.11
  L 659.80 687.11
  Q 660.27 687.11 660.59 686.76
  L 671.56 675.00
  Q 671.92 674.61 671.92 674.08
  L 671.92 629.35
  A 0.24 0.23 29.4 0 0 671.88 629.22
  L 661.39 617.65
  A 3.00 3.00 0.0 0 0 659.12 616.66
  L 648.79 616.78
  Q 648.25 616.78 647.88 617.18"
/>
<path stroke="#818c93" vector-effect="non-scaling-stroke" d="
  M 710.33 687.00
  A 0.33 0.33 0.0 0 0 710.59 686.88
  L 719.74 675.76
  A 0.33 0.33 0.0 0 1 720.28 675.80
  L 726.58 686.73
  A 0.33 0.33 0.0 0 0 726.87 686.90
  L 735.72 686.90
  A 0.33 0.33 0.0 0 0 736.05 686.57
  L 736.05 616.88
  A 0.33 0.33 0.0 0 0 735.72 616.55
  L 726.78 616.55
  A 0.33 0.33 0.0 0 0 726.45 616.88
  L 726.45 633.85
  A 0.33 0.33 0.0 0 1 726.12 634.18
  L 700.39 634.18
  A 0.33 0.33 0.0 0 0 700.06 634.51
  L 700.06 686.67
  A 0.33 0.33 0.0 0 0 700.39 687.00
  L 710.33 687.00"
/>
<path stroke="#818c93" vector-effect="non-scaling-stroke" d="
  M 402.47 630.32
  L 402.12 686.93
  Q 402.12 687.06 402.24 687.06
  L 411.54 687.06
  Q 411.87 687.06 411.87 686.79
  L 411.87 617.23
  Q 411.87 616.84 411.48 616.83
  C 408.59 616.76 405.81 616.82 402.94 616.60
  Q 401.17 616.46 400.32 617.34
  Q 388.03 630.08 387.94 630.18
  Q 386.34 632.06 385.34 633.11
  Q 384.17 634.34 385.37 635.54
  L 390.80 640.97
  Q 391.30 641.48 391.79 640.96
  L 401.91 630.10
  Q 402.48 629.50 402.47 630.32"
/>
<path stroke="#818c93" vector-effect="non-scaling-stroke" d="
  M 346.79 648.90
  Q 347.34 649.02 347.34 649.58
  L 347.34 686.85
  Q 347.34 687.13 347.62 687.13
  L 356.62 687.13
  Q 356.96 687.13 356.96 686.78
  L 356.96 633.36
  Q 356.96 633.05 356.65 633.05
  L 346.70 633.17
  A 0.87 0.87 0.0 0 0 346.05 633.46
  L 336.88 643.28
  A 1.01 1.00 48.5 0 1 335.33 643.18
  L 328.88 634.13
  A 2.36 2.36 0.0 0 0 326.92 633.14
  L 321.26 633.20
  A 0.57 0.56 -0.5 0 0 320.70 633.76
  L 320.70 686.63
  Q 320.70 687.07 321.14 687.07
  L 329.59 687.07
  Q 329.99 687.07 329.99 686.67
  L 329.99 665.12
  Q 329.99 664.59 330.37 664.21
  Q 336.44 658.09 341.53 653.29
  C 342.61 652.27 343.57 650.94 344.90 649.67
  Q 345.90 648.71 346.79 648.90"
/>
<path stroke="#818c93" vector-effect="non-scaling-stroke" d="
  M 450.28 645.56
  L 450.15 633.76
  Q 450.14 633.15 449.53 633.15
  L 438.82 633.15
  A 0.50 0.50 0.0 0 0 438.32 633.65
  L 438.32 686.63
  Q 438.32 687.18 438.87 687.18
  L 446.95 687.18
  Q 447.85 687.18 447.85 686.29
  L 447.85 664.03
  Q 447.85 663.46 448.33 663.14
  C 449.10 662.62 449.89 662.42 450.60 661.70
  Q 456.41 655.83 463.46 649.49
  A 0.96 0.96 0.0 0 1 465.06 650.20
  L 465.06 686.89
  Q 465.06 687.24 465.41 687.24
  L 474.41 687.24
  Q 474.78 687.24 474.78 686.87
  L 474.78 633.67
  Q 474.78 633.13 474.24 633.13
  L 465.03 633.13
  Q 464.54 633.13 464.22 633.50
  Q 458.14 640.22 450.85 645.83
  A 0.35 0.35 0.0 0 1 450.28 645.56"
/>
<path stroke="#818c93" vector-effect="non-scaling-stroke" d="
  M 523.58 686.99
  Q 526.18 686.99 524.41 688.90
  L 520.92 692.64
  Q 519.33 694.35 516.99 694.37
  L 501.04 694.56
  Q 500.18 694.57 500.18 695.43
  L 500.18 703.43
  Q 500.18 704.28 501.03 704.34
  Q 511.10 704.99 522.97 704.17
  Q 523.54 704.13 523.95 703.72
  L 535.82 691.85
  A 2.50 2.46 -22.8 0 0 536.55 690.10
  L 536.55 647.14
  A 3.02 2.99 -67.9 0 0 535.66 645.00
  L 525.29 634.62
  A 3.35 3.34 67.1 0 0 522.91 633.65
  L 514.19 633.76
  A 2.43 2.40 -68.7 0 0 512.44 634.54
  Q 508.85 638.45 501.60 644.86
  Q 500.20 646.10 500.20 648.00
  Q 500.23 674.56 500.16 686.22
  Q 500.16 686.99 500.93 686.99
  L 523.58 686.99"
/>
<path stroke="#818c93" vector-effect="non-scaling-stroke" d="
  M 170.87 640.31
  L 170.87 635.45
  Q 170.87 634.03 169.44 634.03
  L 162.52 634.03
  Q 161.08 634.03 161.08 635.47
  L 161.08 686.84
  Q 161.08 687.04 161.29 687.04
  L 170.13 687.04
  Q 170.36 687.04 170.36 686.81
  L 170.36 657.64
  Q 170.36 657.12 170.77 656.79
  C 171.66 656.09 172.32 655.98 173.14 654.96
  Q 178.11 648.79 185.21 640.43
  Q 185.38 640.23 185.21 640.03
  L 179.91 633.76
  A 0.44 0.44 0.0 0 0 179.26 633.73
  L 172.15 640.84
  A 0.75 0.75 0.0 0 1 170.87 640.31"
/>
<path stroke="#026969" vector-effect="non-scaling-stroke" d="
  M 190.45 728.13
  L 162.73 728.23
  A 6.18 6.18 0.0 0 0 156.57 734.43
  L 156.70 772.03
  A 7.88 7.34 89.8 0 0 164.07 779.88
  L 189.47 779.80
  A 7.88 7.34 89.8 0 0 196.78 771.89
  L 196.65 734.29
  A 6.18 6.18 0.0 0 0 190.45 728.13"
/>
<path stroke="#026969" vector-effect="non-scaling-stroke" d="
  M 114.55 750.11
  A 0.34 0.34 0.0 0 0 114.21 749.77
  L 101.39 749.77
  A 0.34 0.34 0.0 0 1 101.05 749.43
  L 101.05 741.56
  A 0.34 0.34 0.0 0 1 101.39 741.22
  L 120.82 741.22
  A 0.34 0.34 0.0 0 0 121.16 740.88
  L 121.16 728.82
  A 0.34 0.34 0.0 0 0 120.82 728.48
  L 88.54 728.48
  A 0.34 0.34 0.0 0 0 88.20 728.82
  L 88.79 779.60
  A 0.34 0.34 0.0 0 0 89.13 779.94
  L 101.19 779.94
  A 0.34 0.34 0.0 0 0 101.53 779.60
  L 101.53 762.36
  A 0.34 0.34 0.0 0 1 101.87 762.02
  L 114.21 761.87
  A 0.34 0.34 0.0 0 0 114.55 761.53
  L 114.55 750.11"
/>
<path stroke="#026969" vector-effect="non-scaling-stroke" d="
  M 247.19 767.75
  A 0.70 0.69 90.0 0 1 247.88 767.05
  L 259.14 767.05
  A 0.77 0.77 0.0 0 1 259.91 767.82
  L 259.91 779.30
  A 0.56 0.56 0.0 0 0 260.47 779.86
  L 272.94 779.86
  Q 273.19 779.86 273.19 779.61
  Q 273.31 767.73 272.96 760.55
  C 272.84 758.00 271.91 757.11 270.25 755.39
  Q 269.85 754.97 269.68 754.41
  Q 269.45 753.64 269.41 752.51
  Q 269.05 740.71 269.15 735.63
  Q 269.22 732.27 267.90 730.80
  Q 265.86 728.52 262.74 728.47
  Q 254.24 728.33 234.96 728.37
  A 0.81 0.81 0.0 0 0 234.15 729.18
  L 234.15 779.09
  A 0.74 0.74 0.0 0 0 234.89 779.83
  L 246.84 779.83
  Q 247.19 779.83 247.19 779.48
  L 247.19 767.75"
/>
<path stroke="#026969" vector-effect="non-scaling-stroke" d="
  M 644.78 754.38
  C 643.39 753.48 641.25 749.51 639.57 746.91
  Q 638.47 745.20 638.50 742.26
  Q 638.55 735.32 638.87 728.79
  A 0.34 0.34 0.0 0 0 638.53 728.43
  L 626.57 728.43
  A 0.94 0.93 90.0 0 0 625.64 729.37
  L 625.64 745.68
  A 6.27 6.25 29.7 0 0 626.52 748.88
  Q 634.36 761.98 636.87 766.15
  Q 638.55 768.95 638.60 770.89
  Q 638.73 775.29 638.79 779.61
  A 0.49 0.48 0.0 0 0 639.28 780.09
  L 651.82 780.09
  Q 652.38 780.09 652.27 779.54
  Q 651.50 775.58 652.13 771.24
  Q 652.56 768.30 655.34 763.28
  Q 658.77 757.08 661.88 751.62
  Q 664.31 747.34 664.31 746.00
  Q 664.32 737.35 664.32 728.77
  A 0.38 0.38 0.0 0 0 663.94 728.39
  L 651.47 728.39
  A 0.44 0.43 -2.4 0 0 651.03 728.86
  Q 651.55 736.46 651.29 742.01
  C 651.07 746.84 649.09 750.11 646.95 753.85
  A 1.55 1.54 -58.7 0 1 644.78 754.38"
/>
<path stroke="#026969" vector-effect="non-scaling-stroke" d="
  M 714.74 766.59
  L 714.74 760.75
  Q 714.74 759.72 715.78 759.72
  L 727.50 759.72
  A 0.61 0.60 82.9 0 0 728.08 758.96
  C 727.21 755.53 727.78 749.83 727.81 747.78
  Q 727.82 747.20 727.24 747.20
  L 715.73 747.20
  A 1.19 1.18 -0.0 0 1 714.54 746.02
  L 714.54 741.85
  A 1.32 1.31 0.0 0 1 715.86 740.54
  L 735.04 740.54
  Q 735.31 740.54 735.31 740.26
  L 735.31 728.74
  A 0.31 0.31 0.0 0 0 735.00 728.43
  L 703.00 728.43
  A 0.50 0.49 -0.0 0 0 702.50 728.92
  L 702.50 778.99
  Q 702.50 779.97 703.48 779.97
  L 733.97 779.97
  Q 734.66 779.97 734.66 779.28
  L 734.66 767.72
  A 0.23 0.23 0.0 0 0 734.43 767.49
  L 715.64 767.49
  Q 714.74 767.49 714.74 766.59"
/>
<path stroke="#026969" vector-effect="non-scaling-stroke" d="
  M 796.96 766.78
  L 772.00 766.78
  Q 771.34 766.78 771.34 767.44
  L 771.34 779.29
  A 0.99 0.99 0.0 0 0 772.36 780.28
  Q 788.59 779.77 802.47 780.14
  Q 809.39 780.33 809.60 773.53
  Q 809.84 765.78 809.41 758.41
  Q 809.20 754.87 805.80 753.67
  C 801.50 752.16 790.84 748.53 785.21 744.64
  Q 781.04 741.75 786.06 741.13
  Q 787.21 740.98 790.50 741.19
  Q 797.42 741.63 806.67 742.23
  Q 807.47 742.28 807.46 741.49
  L 807.32 729.73
  A 1.28 1.27 0.0 0 0 806.05 728.47
  Q 792.20 728.36 776.62 728.39
  C 772.22 728.40 770.48 730.05 770.42 734.52
  Q 770.35 740.63 770.58 746.75
  C 770.73 750.41 770.21 751.75 773.43 753.33
  Q 782.47 757.79 794.06 763.17
  Q 795.37 763.78 797.45 765.25
  A 0.84 0.84 0.0 0 1 796.96 766.78"
/>
<path stroke="#026969" vector-effect="non-scaling-stroke" d="
  M 377.53 768.97
  A 0.83 0.82 89.7 0 1 378.34 768.14
  L 388.68 768.02
  A 0.85 0.85 0.0 0 1 389.54 768.87
  L 389.54 779.42
  A 0.58 0.58 0.0 0 0 390.12 780.00
  L 401.98 780.00
  A 0.91 0.91 0.0 0 0 402.89 779.06
  Q 402.52 766.13 402.90 757.18
  C 403.00 754.71 402.37 752.02 401.30 750.22
  Q 395.54 740.47 389.58 730.00
  Q 388.74 728.53 387.05 728.55
  L 377.45 728.66
  Q 376.99 728.67 376.78 729.07
  L 363.86 753.58
  A 2.78 2.74 59.1 0 0 363.53 754.93
  L 363.81 779.38
  A 0.78 0.77 -0.7 0 0 364.60 780.14
  L 376.96 780.00
  A 0.70 0.70 0.0 0 0 377.65 779.29
  L 377.53 768.97"
/>
<path stroke="#026969" vector-effect="non-scaling-stroke" d="
  M 458.23 766.98
  L 458.23 742.13
  A 1.10 1.10 0.0 0 1 459.33 741.03
  L 463.79 741.03
  A 0.84 0.80 -0.0 0 0 464.63 740.23
  L 464.63 729.10
  Q 464.63 728.61 464.14 728.61
  L 439.00 728.61
  A 0.65 0.65 0.0 0 0 438.35 729.26
  L 438.35 740.52
  Q 438.35 741.23 439.06 741.23
  L 442.73 741.23
  Q 443.68 741.23 443.74 742.17
  Q 444.53 754.13 443.68 766.35
  Q 443.64 766.95 443.05 766.99
  L 440.30 767.21
  A 1.05 1.04 -2.1 0 0 439.33 768.25
  L 439.33 779.29
  A 0.74 0.62 -90.0 0 0 439.95 780.03
  L 462.98 780.03
  A 0.70 0.70 0.0 0 0 463.68 779.33
  L 463.68 768.54
  Q 463.68 767.83 462.97 767.83
  L 459.08 767.83
  Q 458.23 767.83 458.23 766.98"
/>
<path stroke="#026969" vector-effect="non-scaling-stroke" d="
  M 583.15 747.83
  A 0.47 0.47 0.0 0 0 582.68 747.36
  L 570.05 747.36
  A 0.47 0.47 0.0 0 1 569.58 746.89
  L 569.58 741.42
  A 0.47 0.47 0.0 0 1 570.05 740.95
  L 588.78 740.95
  A 0.47 0.47 0.0 0 0 589.25 740.48
  L 589.25 729.04
  A 0.47 0.47 0.0 0 0 588.78 728.57
  L 557.09 728.57
  A 0.47 0.47 0.0 0 0 556.62 729.05
  L 557.20 779.76
  A 0.47 0.47 0.0 0 0 557.67 780.22
  L 588.57 780.22
  A 0.47 0.47 0.0 0 0 589.04 779.75
  L 589.04 768.10
  A 0.47 0.47 0.0 0 0 588.57 767.63
  L 570.40 767.63
  A 0.47 0.47 0.0 0 1 569.93 767.17
  L 569.86 760.37
  A 0.47 0.47 0.0 0 1 570.33 759.89
  L 582.68 759.89
  A 0.47 0.47 0.0 0 0 583.15 759.42
  L 583.15 747.83"
/>
<path stroke="#818c93" vector-effect="non-scaling-stroke" d="
  M 506.9100 195.1579
  A 18.40 8.14 -0.1 0 0 488.4958 187.0500
  A 18.40 8.14 -0.1 0 0 470.1100 195.2221
  A 18.40 8.14 -0.1 0 0 488.5242 203.3300
  A 18.40 8.14 -0.1 0 0 506.9100 195.1579"
/>
<path stroke="#62803c" vector-effect="non-scaling-stroke" d="
  M 545.4973 359.2565
  A 18.48 6.96 118.2 0 0 560.3639 346.2590
  A 18.48 6.96 118.2 0 0 562.9627 326.6835
  A 18.48 6.96 118.2 0 0 548.0961 339.6810
  A 18.48 6.96 118.2 0 0 545.4973 359.2565"
/>
<path stroke="#026969" vector-effect="non-scaling-stroke" d="
  M 345.5508 360.8114
  A 19.37 6.95 61.0 0 0 342.2386 340.5006
  A 19.37 6.95 61.0 0 0 326.7692 326.9286
  A 19.37 6.95 61.0 0 0 330.0814 347.2394
  A 19.37 6.95 61.0 0 0 345.5508 360.8114"
/>
<path stroke="#818c93" vector-effect="non-scaling-stroke" d="
  M 222.83 633.19
  A 0.60 0.60 0.0 0 0 223.43 633.79
  L 245.86 633.79
  A 0.60 0.60 0.0 0 0 246.29 632.77
  L 240.57 627.05
  A 0.60 0.60 0.0 0 0 240.14 626.87
  L 223.43 626.87
  A 0.60 0.60 0.0 0 0 222.83 627.47
  L 222.83 633.19"
/>
<path stroke="#818c93" vector-effect="non-scaling-stroke" d="
  M 658.34 630.35
  Q 658.67 629.84 658.23 629.42
  L 655.73 627.09
  A 1.97 1.96 -41.2 0 0 653.25 626.93
  C 651.54 628.15 646.06 632.53 646.03 635.31
  Q 645.97 641.00 645.90 643.64
  A 0.39 0.39 0.0 0 0 646.54 643.95
  Q 653.25 638.20 658.34 630.35"
/>
<path stroke="#818c93" vector-effect="non-scaling-stroke" d="
  M 646.39 669.37
  L 654.14 677.91
  A 0.63 0.62 44.7 0 0 655.07 677.91
  L 661.95 670.08
  A 1.28 1.26 -25.0 0 0 662.26 669.25
  L 662.26 644.02
  A 0.40 0.39 75.7 0 0 661.68 643.67
  Q 659.48 644.86 657.50 647.00
  Q 646.87 658.46 646.05 659.26
  Q 645.62 659.68 645.63 660.08
  L 645.71 667.63
  A 2.63 2.63 0.0 0 0 646.39 669.37"
/>
<path stroke="#818c93" vector-effect="non-scaling-stroke" d="
  M 722.53 659.05
  C 723.31 658.27 724.92 657.75 725.71 657.27
  Q 726.16 656.99 726.16 656.46
  L 726.16 643.41
  Q 726.16 642.92 725.67 642.92
  L 714.10 642.92
  A 0.92 0.92 0.0 0 0 713.29 643.40
  L 709.78 649.72
  A 2.75 2.72 -31.1 0 0 709.45 651.02
  L 709.45 672.01
  A 0.38 0.38 0.0 0 0 710.01 672.34
  Q 710.57 672.04 711.13 671.39
  Q 716.72 664.87 722.53 659.05"
/>
<path stroke="#818c93" vector-effect="non-scaling-stroke" d="
  M 526.16 676.78
  Q 526.28 676.77 526.28 676.67
  L 526.28 651.95
  A 2.90 2.88 -64.9 0 0 525.62 650.11
  L 520.05 643.40
  A 1.26 1.25 -42.0 0 0 518.20 643.31
  Q 514.09 647.37 511.89 649.38
  Q 510.33 650.81 510.33 652.56
  Q 510.36 663.41 510.07 671.59
  A 1.30 1.26 27.3 0 0 510.36 672.45
  L 513.82 676.64
  A 2.56 2.56 0.0 0 0 516.01 677.57
  L 526.16 676.78"
/>
<path stroke="#026969" vector-effect="non-scaling-stroke" d="
  M 171.87 740.87
  A 1.38 1.38 0.0 0 0 170.51 742.25
  L 170.51 765.61
  A 1.38 1.38 0.0 0 0 171.89 766.99
  L 182.20 766.99
  A 1.38 1.38 0.0 0 0 183.58 765.59
  L 183.32 742.12
  A 1.38 1.38 0.0 0 0 181.92 740.76
  L 171.87 740.87"
/>
<path stroke="#026969" vector-effect="non-scaling-stroke" d="
  M 257.2262 743.2341
  A 1.15 1.15 0.0 0 0 256.0702 742.0902
  L 248.4703 742.1300
  A 1.15 1.15 0.0 0 0 247.3263 743.2860
  L 247.3738 752.3659
  A 1.15 1.15 0.0 0 0 248.5298 753.5098
  L 256.1297 753.4700
  A 1.15 1.15 0.0 0 0 257.2737 752.3140
  L 257.2262 743.2341"
/>
<path stroke="#026969" vector-effect="non-scaling-stroke" d="
  M 388.89 754.14
  C 387.01 750.51 386.29 746.49 384.35 743.49
  Q 383.86 742.73 383.41 742.84
  A 1.75 0.92 -76.4 0 0 382.46 743.92
  L 378.42 754.20
  A 0.69 0.69 0.0 0 0 379.07 755.14
  L 388.28 755.14
  A 0.69 0.69 0.0 0 0 388.89 754.14"
/>
</g>
<path fill="#021927" d="
  M 896.00 0.00
  L 896.00 896.00
  L 0.00 896.00
  L 0.00 0.00
  L 896.00 0.00
  Z
  M 434.20 501.83
  Q 431.75 501.28 429.52 499.99
  Q 413.76 490.89 403.82 485.75
  Q 401.56 484.58 401.55 481.98
  Q 401.25 400.78 401.77 313.89
  Q 401.83 303.69 400.39 299.96
  Q 397.63 292.76 390.10 288.61
  Q 353.97 268.72 289.30 230.62
  Q 285.13 228.16 283.27 228.03
  Q 274.51 227.40 271.38 233.45
  Q 269.82 236.44 269.83 244.42
  Q 269.87 287.50 269.79 418.12
  C 269.79 428.67 271.23 435.63 280.87 440.80
  Q 303.43 452.91 326.28 466.47
  C 332.13 469.94 339.31 471.72 343.89 465.88
  Q 346.35 462.74 346.38 457.80
  Q 346.58 429.37 346.77 385.07
  Q 346.77 383.97 347.86 383.82
  Q 360.24 382.10 365.72 372.19
  C 369.73 364.92 369.75 353.10 367.87 345.59
  Q 361.99 322.13 341.76 308.66
  Q 329.37 300.42 316.19 304.69
  Q 311.46 306.22 307.33 311.22
  C 303.15 316.27 302.07 324.79 302.43 331.27
  C 303.33 347.90 310.50 360.66 322.63 372.59
  C 324.15 374.08 324.22 375.17 324.28 377.50
  Q 325.04 408.17 325.00 438.46
  Q 325.00 439.76 323.86 439.13
  L 293.66 422.40
  A 2.63 2.62 14.6 0 1 292.31 420.11
  L 292.31 258.98
  A 0.58 0.57 -82.7 0 1 293.03 258.42
  Q 294.00 258.68 294.69 259.07
  Q 329.11 278.49 377.34 306.81
  A 3.26 3.26 0.0 0 1 378.94 309.60
  Q 379.18 370.49 379.14 486.25
  Q 379.13 497.71 388.99 502.97
  C 405.81 511.95 420.56 520.39 439.63 531.39
  Q 441.69 532.58 445.08 533.52
  Q 447.15 533.40 449.04 532.29
  Q 469.45 520.33 495.45 505.78
  Q 503.82 501.10 506.05 498.45
  Q 510.38 493.31 510.41 485.53
  Q 510.65 399.90 510.34 318.26
  Q 510.32 313.68 510.46 310.11
  A 3.77 3.76 76.3 0 1 512.34 307.01
  L 595.71 258.87
  Q 597.20 258.01 597.20 259.74
  L 597.20 418.83
  A 3.12 3.12 0.0 0 1 595.64 421.53
  L 566.75 438.21
  Q 565.77 438.78 565.77 437.65
  L 565.77 375.34
  A 3.41 3.37 -22.6 0 1 566.78 372.93
  Q 573.22 366.51 577.85 360.36
  Q 588.41 346.38 587.46 327.78
  Q 586.97 318.24 581.84 311.13
  C 577.49 305.10 568.81 301.67 560.84 303.15
  C 551.49 304.90 543.20 310.35 536.62 317.36
  Q 522.59 332.30 520.82 352.28
  C 519.89 362.74 522.19 374.37 531.42 380.26
  C 534.35 382.13 537.64 382.81 541.59 383.68
  A 0.80 0.79 4.4 0 1 542.21 384.40
  C 543.05 398.58 542.59 421.75 542.58 457.50
  Q 542.58 463.43 546.42 467.17
  C 550.16 470.81 556.45 470.89 560.64 468.40
  Q 581.60 455.94 606.03 441.96
  C 614.23 437.26 619.44 433.25 619.47 423.88
  Q 619.78 336.44 619.56 240.26
  C 619.54 230.33 610.78 223.30 601.36 228.90
  Q 586.22 237.89 510.25 281.92
  C 506.51 284.09 503.22 285.28 499.49 287.21
  Q 487.83 293.23 487.84 307.04
  Q 487.92 379.31 487.67 482.30
  A 2.88 2.87 75.4 0 1 486.22 484.78
  L 455.94 502.02
  Q 456.06 400.06 456.01 298.25
  Q 456.00 291.31 453.00 287.40
  Q 450.98 284.79 444.42 281.17
  Q 432.20 274.43 423.13 269.21
  Q 349.87 227.08 306.28 202.20
  Q 305.22 201.59 304.38 200.93
  A 0.67 0.67 0.0 0 1 304.46 199.84
  Q 318.23 191.60 326.98 186.26
  C 330.47 184.13 333.51 181.83 337.09 182.83
  Q 339.33 183.46 341.90 184.97
  Q 361.27 196.39 380.14 207.38
  Q 442.86 243.88 458.61 252.90
  Q 468.55 258.59 486.91 269.64
  Q 496.24 275.26 506.62 271.33
  Q 511.19 269.60 515.66 266.89
  C 534.08 255.73 554.88 243.93 574.90 232.20
  Q 590.75 222.91 611.06 211.54
  C 619.58 206.77 622.21 197.65 613.94 191.04
  Q 612.67 190.02 609.09 187.95
  Q 585.66 174.42 551.05 154.50
  Q 487.90 118.16 479.07 112.94
  Q 466.22 105.33 455.32 98.48
  C 446.52 92.95 439.63 95.33 431.40 100.17
  Q 418.41 107.81 387.33 126.40
  C 382.30 129.41 379.18 132.02 379.28 137.80
  Q 379.37 143.91 385.29 147.33
  Q 423.65 169.46 447.39 183.91
  Q 448.58 184.63 447.95 185.87
  C 440.83 199.96 450.11 212.28 462.60 218.41
  C 476.17 225.07 491.88 225.57 506.33 221.61
  C 516.84 218.73 528.07 211.02 530.68 199.98
  Q 532.75 191.21 528.99 184.23
  C 524.99 176.83 515.05 170.83 506.89 168.42
  Q 488.32 162.92 467.28 168.75
  Q 466.82 168.88 466.37 168.72
  Q 464.00 167.84 461.00 166.04
  Q 438.38 152.50 417.82 140.64
  Q 415.77 139.46 413.52 137.79
  A 0.66 0.66 0.0 0 1 413.57 136.70
  Q 425.60 129.35 440.03 121.27
  Q 440.99 120.73 444.75 119.18
  Q 445.24 118.98 445.73 119.15
  Q 447.53 119.78 448.85 120.57
  C 477.47 137.53 508.83 154.98 534.49 170.35
  C 551.31 180.41 568.74 190.23 584.71 200.05
  A 0.57 0.57 0.0 0 1 584.78 200.97
  Q 584.34 201.34 583.22 201.98
  Q 544.56 223.87 514.44 242.07
  C 508.98 245.36 502.94 249.68 496.25 248.35
  Q 493.93 247.89 489.11 245.07
  Q 424.84 207.43 347.14 162.36
  Q 335.24 155.46 323.43 162.42
  Q 287.27 183.72 277.65 189.34
  Q 273.74 191.62 272.42 193.39
  C 268.64 198.42 270.00 205.58 275.01 209.32
  Q 276.31 210.29 278.35 211.45
  C 328.10 239.69 378.59 269.06 430.70 299.56
  Q 432.42 300.57 432.97 301.14
  Q 433.33 301.51 433.41 302.02
  Q 433.69 303.91 433.67 307.52
  Q 433.23 386.93 433.56 480.25
  Q 433.61 494.36 434.20 501.83
  Z
  M 88.60 626.19
  A 0.35 0.35 0.0 0 0 88.95 626.54
  L 106.96 626.54
  A 0.35 0.35 0.0 0 1 107.31 626.89
  L 107.31 686.68
  A 0.35 0.35 0.0 0 0 107.66 687.03
  L 116.62 687.03
  A 0.35 0.35 0.0 0 0 116.97 686.68
  L 116.97 626.94
  A 0.35 0.35 0.0 0 1 117.32 626.59
  L 134.60 626.59
  A 0.35 0.35 0.0 0 0 134.95 626.24
  L 134.95 616.91
  A 0.35 0.35 0.0 0 0 134.60 616.56
  L 88.95 616.56
  A 0.35 0.35 0.0 0 0 88.60 616.91
  L 88.60 626.19
  Z
  M 294.5242 616.7646
  A 0.34 0.34 0.0 0 0 294.1865 616.4223
  L 285.1868 616.3594
  A 0.34 0.34 0.0 0 0 284.8444 616.6971
  L 284.3558 686.6754
  A 0.34 0.34 0.0 0 0 284.6935 687.0177
  L 293.6932 687.0806
  A 0.34 0.34 0.0 0 0 294.0356 686.7429
  L 294.5242 616.7646
  Z
  M 573.90 668.73
  L 573.90 633.83
  A 0.70 0.69 67.2 0 1 574.09 633.35
  L 579.94 627.07
  A 2.97 2.92 -68.8 0 1 582.02 626.13
  Q 586.13 626.00 592.13 626.21
  C 593.86 626.26 594.22 628.31 595.05 629.28
  Q 597.96 632.70 601.92 637.03
  A 0.95 0.94 46.0 0 0 603.28 637.06
  L 609.82 630.52
  A 0.48 0.47 -44.1 0 0 609.84 629.86
  L 598.98 617.73
  Q 597.69 616.29 595.76 616.32
  L 578.93 616.51
  A 3.87 3.85 24.2 0 0 576.47 617.44
  L 565.15 627.14
  A 2.81 2.76 70.3 0 0 564.18 629.24
  Q 564.10 643.84 564.06 671.47
  C 564.06 673.76 564.97 674.76 566.48 676.36
  Q 571.68 681.86 576.03 686.26
  A 2.59 2.55 67.4 0 0 577.86 687.03
  L 596.78 687.03
  Q 597.31 687.03 597.68 686.63
  L 609.83 673.61
  Q 610.22 673.19 609.81 672.77
  L 603.16 666.12
  A 0.48 0.48 0.0 0 0 602.47 666.13
  L 592.78 676.54
  A 2.70 2.66 21.1 0 1 590.85 677.38
  L 582.01 677.49
  A 0.49 0.47 -20.9 0 1 581.66 677.34
  L 574.50 670.18
  A 2.05 2.05 0.0 0 1 573.90 668.73
  Z
  M 788.01 627.07
  L 779.18 639.02
  Q 778.77 639.58 779.26 640.08
  L 789.22 650.03
  Q 789.90 650.71 789.89 651.68
  Q 789.88 653.96 789.94 667.80
  C 789.96 670.48 784.62 674.96 782.57 676.86
  A 0.82 0.81 44.7 0 1 781.46 676.86
  L 770.66 666.79
  A 0.53 0.53 0.0 0 0 769.89 666.84
  L 764.46 673.44
  Q 764.18 673.78 764.49 674.10
  L 776.33 686.65
  A 0.77 0.77 0.0 0 0 776.90 686.90
  L 786.33 686.90
  Q 786.88 686.90 787.31 686.55
  Q 792.75 682.13 797.99 676.24
  Q 799.52 674.51 799.57 673.25
  Q 800.02 662.22 799.47 646.85
  Q 799.45 646.27 799.04 645.86
  L 792.16 638.98
  A 0.72 0.71 42.2 0 1 792.11 638.02
  L 799.33 629.24
  Q 799.63 628.88 799.63 628.42
  L 799.63 616.76
  Q 799.63 616.14 799.01 616.14
  L 763.55 616.55
  Q 762.93 616.56 762.94 617.18
  L 763.03 625.40
  Q 763.04 626.05 763.68 626.05
  L 787.50 626.05
  A 0.64 0.64 0.0 0 1 788.01 627.07
  Z
  M 223.28 643.20
  L 247.78 643.20
  A 0.82 0.82 0.0 0 1 248.60 644.02
  L 248.60 686.80
  Q 248.60 687.03 248.82 687.03
  L 257.82 687.03
  A 0.32 0.32 0.0 0 0 258.14 686.71
  L 258.14 629.50
  A 1.54 1.54 0.0 0 0 257.60 628.33
  Q 250.93 622.64 245.98 617.77
  Q 245.89 617.68 244.84 617.09
  Q 244.47 616.89 244.04 616.89
  L 213.49 616.89
  Q 212.86 616.89 212.86 617.51
  L 212.86 686.67
  Q 212.86 687.00 213.19 687.00
  L 222.18 687.00
  Q 222.42 687.00 222.42 686.76
  L 222.42 644.07
  A 0.87 0.86 90.0 0 1 223.28 643.20
  Z
  M 647.88 617.18
  L 636.47 629.42
  A 1.33 1.31 67.1 0 0 636.11 630.33
  Q 636.01 665.72 636.15 671.74
  Q 636.20 673.84 637.62 675.47
  Q 642.65 681.27 648.25 686.73
  Q 648.64 687.11 649.18 687.11
  L 659.80 687.11
  Q 660.27 687.11 660.59 686.76
  L 671.56 675.00
  Q 671.92 674.61 671.92 674.08
  L 671.92 629.35
  A 0.24 0.23 29.4 0 0 671.88 629.22
  L 661.39 617.65
  A 3.00 3.00 0.0 0 0 659.12 616.66
  L 648.79 616.78
  Q 648.25 616.78 647.88 617.18
  Z
  M 710.33 687.00
  A 0.33 0.33 0.0 0 0 710.59 686.88
  L 719.74 675.76
  A 0.33 0.33 0.0 0 1 720.28 675.80
  L 726.58 686.73
  A 0.33 0.33 0.0 0 0 726.87 686.90
  L 735.72 686.90
  A 0.33 0.33 0.0 0 0 736.05 686.57
  L 736.05 616.88
  A 0.33 0.33 0.0 0 0 735.72 616.55
  L 726.78 616.55
  A 0.33 0.33 0.0 0 0 726.45 616.88
  L 726.45 633.85
  A 0.33 0.33 0.0 0 1 726.12 634.18
  L 700.39 634.18
  A 0.33 0.33 0.0 0 0 700.06 634.51
  L 700.06 686.67
  A 0.33 0.33 0.0 0 0 700.39 687.00
  L 710.33 687.00
  Z
  M 402.47 630.32
  L 402.12 686.93
  Q 402.12 687.06 402.24 687.06
  L 411.54 687.06
  Q 411.87 687.06 411.87 686.79
  L 411.87 617.23
  Q 411.87 616.84 411.48 616.83
  C 408.59 616.76 405.81 616.82 402.94 616.60
  Q 401.17 616.46 400.32 617.34
  Q 388.03 630.08 387.94 630.18
  Q 386.34 632.06 385.34 633.11
  Q 384.17 634.34 385.37 635.54
  L 390.80 640.97
  Q 391.30 641.48 391.79 640.96
  L 401.91 630.10
  Q 402.48 629.50 402.47 630.32
  Z
  M 346.79 648.90
  Q 347.34 649.02 347.34 649.58
  L 347.34 686.85
  Q 347.34 687.13 347.62 687.13
  L 356.62 687.13
  Q 356.96 687.13 356.96 686.78
  L 356.96 633.36
  Q 356.96 633.05 356.65 633.05
  L 346.70 633.17
  A 0.87 0.87 0.0 0 0 346.05 633.46
  L 336.88 643.28
  A 1.01 1.00 48.5 0 1 335.33 643.18
  L 328.88 634.13
  A 2.36 2.36 0.0 0 0 326.92 633.14
  L 321.26 633.20
  A 0.57 0.56 -0.5 0 0 320.70 633.76
  L 320.70 686.63
  Q 320.70 687.07 321.14 687.07
  L 329.59 687.07
  Q 329.99 687.07 329.99 686.67
  L 329.99 665.12
  Q 329.99 664.59 330.37 664.21
  Q 336.44 658.09 341.53 653.29
  C 342.61 652.27 343.57 650.94 344.90 649.67
  Q 345.90 648.71 346.79 648.90
  Z
  M 450.28 645.56
  L 450.15 633.76
  Q 450.14 633.15 449.53 633.15
  L 438.82 633.15
  A 0.50 0.50 0.0 0 0 438.32 633.65
  L 438.32 686.63
  Q 438.32 687.18 438.87 687.18
  L 446.95 687.18
  Q 447.85 687.18 447.85 686.29
  L 447.85 664.03
  Q 447.85 663.46 448.33 663.14
  C 449.10 662.62 449.89 662.42 450.60 661.70
  Q 456.41 655.83 463.46 649.49
  A 0.96 0.96 0.0 0 1 465.06 650.20
  L 465.06 686.89
  Q 465.06 687.24 465.41 687.24
  L 474.41 687.24
  Q 474.78 687.24 474.78 686.87
  L 474.78 633.67
  Q 474.78 633.13 474.24 633.13
  L 465.03 633.13
  Q 464.54 633.13 464.22 633.50
  Q 458.14 640.22 450.85 645.83
  A 0.35 0.35 0.0 0 1 450.28 645.56
  Z
  M 523.58 686.99
  Q 526.18 686.99 524.41 688.90
  L 520.92 692.64
  Q 519.33 694.35 516.99 694.37
  L 501.04 694.56
  Q 500.18 694.57 500.18 695.43
  L 500.18 703.43
  Q 500.18 704.28 501.03 704.34
  Q 511.10 704.99 522.97 704.17
  Q 523.54 704.13 523.95 703.72
  L 535.82 691.85
  A 2.50 2.46 -22.8 0 0 536.55 690.10
  L 536.55 647.14
  A 3.02 2.99 -67.9 0 0 535.66 645.00
  L 525.29 634.62
  A 3.35 3.34 67.1 0 0 522.91 633.65
  L 514.19 633.76
  A 2.43 2.40 -68.7 0 0 512.44 634.54
  Q 508.85 638.45 501.60 644.86
  Q 500.20 646.10 500.20 648.00
  Q 500.23 674.56 500.16 686.22
  Q 500.16 686.99 500.93 686.99
  L 523.58 686.99
  Z
  M 170.87 640.31
  L 170.87 635.45
  Q 170.87 634.03 169.44 634.03
  L 162.52 634.03
  Q 161.08 634.03 161.08 635.47
  L 161.08 686.84
  Q 161.08 687.04 161.29 687.04
  L 170.13 687.04
  Q 170.36 687.04 170.36 686.81
  L 170.36 657.64
  Q 170.36 657.12 170.77 656.79
  C 171.66 656.09 172.32 655.98 173.14 654.96
  Q 178.11 648.79 185.21 640.43
  Q 185.38 640.23 185.21 640.03
  L 179.91 633.76
  A 0.44 0.44 0.0 0 0 179.26 633.73
  L 172.15 640.84
  A 0.75 0.75 0.0 0 1 170.87 640.31
  Z
  M 190.45 728.13
  L 162.73 728.23
  A 6.18 6.18 0.0 0 0 156.57 734.43
  L 156.70 772.03
  A 7.88 7.34 89.8 0 0 164.07 779.88
  L 189.47 779.80
  A 7.88 7.34 89.8 0 0 196.78 771.89
  L 196.65 734.29
  A 6.18 6.18 0.0 0 0 190.45 728.13
  Z
  M 114.55 750.11
  A 0.34 0.34 0.0 0 0 114.21 749.77
  L 101.39 749.77
  A 0.34 0.34 0.0 0 1 101.05 749.43
  L 101.05 741.56
  A 0.34 0.34 0.0 0 1 101.39 741.22
  L 120.82 741.22
  A 0.34 0.34 0.0 0 0 121.16 740.88
  L 121.16 728.82
  A 0.34 0.34 0.0 0 0 120.82 728.48
  L 88.54 728.48
  A 0.34 0.34 0.0 0 0 88.20 728.82
  L 88.79 779.60
  A 0.34 0.34 0.0 0 0 89.13 779.94
  L 101.19 779.94
  A 0.34 0.34 0.0 0 0 101.53 779.60
  L 101.53 762.36
  A 0.34 0.34 0.0 0 1 101.87 762.02
  L 114.21 761.87
  A 0.34 0.34 0.0 0 0 114.55 761.53
  L 114.55 750.11
  Z
  M 247.19 767.75
  A 0.70 0.69 90.0 0 1 247.88 767.05
  L 259.14 767.05
  A 0.77 0.77 0.0 0 1 259.91 767.82
  L 259.91 779.30
  A 0.56 0.56 0.0 0 0 260.47 779.86
  L 272.94 779.86
  Q 273.19 779.86 273.19 779.61
  Q 273.31 767.73 272.96 760.55
  C 272.84 758.00 271.91 757.11 270.25 755.39
  Q 269.85 754.97 269.68 754.41
  Q 269.45 753.64 269.41 752.51
  Q 269.05 740.71 269.15 735.63
  Q 269.22 732.27 267.90 730.80
  Q 265.86 728.52 262.74 728.47
  Q 254.24 728.33 234.96 728.37
  A 0.81 0.81 0.0 0 0 234.15 729.18
  L 234.15 779.09
  A 0.74 0.74 0.0 0 0 234.89 779.83
  L 246.84 779.83
  Q 247.19 779.83 247.19 779.48
  L 247.19 767.75
  Z
  M 644.78 754.38
  C 643.39 753.48 641.25 749.51 639.57 746.91
  Q 638.47 745.20 638.50 742.26
  Q 638.55 735.32 638.87 728.79
  A 0.34 0.34 0.0 0 0 638.53 728.43
  L 626.57 728.43
  A 0.94 0.93 90.0 0 0 625.64 729.37
  L 625.64 745.68
  A 6.27 6.25 29.7 0 0 626.52 748.88
  Q 634.36 761.98 636.87 766.15
  Q 638.55 768.95 638.60 770.89
  Q 638.73 775.29 638.79 779.61
  A 0.49 0.48 0.0 0 0 639.28 780.09
  L 651.82 780.09
  Q 652.38 780.09 652.27 779.54
  Q 651.50 775.58 652.13 771.24
  Q 652.56 768.30 655.34 763.28
  Q 658.77 757.08 661.88 751.62
  Q 664.31 747.34 664.31 746.00
  Q 664.32 737.35 664.32 728.77
  A 0.38 0.38 0.0 0 0 663.94 728.39
  L 651.47 728.39
  A 0.44 0.43 -2.4 0 0 651.03 728.86
  Q 651.55 736.46 651.29 742.01
  C 651.07 746.84 649.09 750.11 646.95 753.85
  A 1.55 1.54 -58.7 0 1 644.78 754.38
  Z
  M 714.74 766.59
  L 714.74 760.75
  Q 714.74 759.72 715.78 759.72
  L 727.50 759.72
  A 0.61 0.60 82.9 0 0 728.08 758.96
  C 727.21 755.53 727.78 749.83 727.81 747.78
  Q 727.82 747.20 727.24 747.20
  L 715.73 747.20
  A 1.19 1.18 -0.0 0 1 714.54 746.02
  L 714.54 741.85
  A 1.32 1.31 0.0 0 1 715.86 740.54
  L 735.04 740.54
  Q 735.31 740.54 735.31 740.26
  L 735.31 728.74
  A 0.31 0.31 0.0 0 0 735.00 728.43
  L 703.00 728.43
  A 0.50 0.49 -0.0 0 0 702.50 728.92
  L 702.50 778.99
  Q 702.50 779.97 703.48 779.97
  L 733.97 779.97
  Q 734.66 779.97 734.66 779.28
  L 734.66 767.72
  A 0.23 0.23 0.0 0 0 734.43 767.49
  L 715.64 767.49
  Q 714.74 767.49 714.74 766.59
  Z
  M 796.96 766.78
  L 772.00 766.78
  Q 771.34 766.78 771.34 767.44
  L 771.34 779.29
  A 0.99 0.99 0.0 0 0 772.36 780.28
  Q 788.59 779.77 802.47 780.14
  Q 809.39 780.33 809.60 773.53
  Q 809.84 765.78 809.41 758.41
  Q 809.20 754.87 805.80 753.67
  C 801.50 752.16 790.84 748.53 785.21 744.64
  Q 781.04 741.75 786.06 741.13
  Q 787.21 740.98 790.50 741.19
  Q 797.42 741.63 806.67 742.23
  Q 807.47 742.28 807.46 741.49
  L 807.32 729.73
  A 1.28 1.27 0.0 0 0 806.05 728.47
  Q 792.20 728.36 776.62 728.39
  C 772.22 728.40 770.48 730.05 770.42 734.52
  Q 770.35 740.63 770.58 746.75
  C 770.73 750.41 770.21 751.75 773.43 753.33
  Q 782.47 757.79 794.06 763.17
  Q 795.37 763.78 797.45 765.25
  A 0.84 0.84 0.0 0 1 796.96 766.78
  Z
  M 377.53 768.97
  A 0.83 0.82 89.7 0 1 378.34 768.14
  L 388.68 768.02
  A 0.85 0.85 0.0 0 1 389.54 768.87
  L 389.54 779.42
  A 0.58 0.58 0.0 0 0 390.12 780.00
  L 401.98 780.00
  A 0.91 0.91 0.0 0 0 402.89 779.06
  Q 402.52 766.13 402.90 757.18
  C 403.00 754.71 402.37 752.02 401.30 750.22
  Q 395.54 740.47 389.58 730.00
  Q 388.74 728.53 387.05 728.55
  L 377.45 728.66
  Q 376.99 728.67 376.78 729.07
  L 363.86 753.58
  A 2.78 2.74 59.1 0 0 363.53 754.93
  L 363.81 779.38
  A 0.78 0.77 -0.7 0 0 364.60 780.14
  L 376.96 780.00
  A 0.70 0.70 0.0 0 0 377.65 779.29
  L 377.53 768.97
  Z
  M 458.23 766.98
  L 458.23 742.13
  A 1.10 1.10 0.0 0 1 459.33 741.03
  L 463.79 741.03
  A 0.84 0.80 -0.0 0 0 464.63 740.23
  L 464.63 729.10
  Q 464.63 728.61 464.14 728.61
  L 439.00 728.61
  A 0.65 0.65 0.0 0 0 438.35 729.26
  L 438.35 740.52
  Q 438.35 741.23 439.06 741.23
  L 442.73 741.23
  Q 443.68 741.23 443.74 742.17
  Q 444.53 754.13 443.68 766.35
  Q 443.64 766.95 443.05 766.99
  L 440.30 767.21
  A 1.05 1.04 -2.1 0 0 439.33 768.25
  L 439.33 779.29
  A 0.74 0.62 -90.0 0 0 439.95 780.03
  L 462.98 780.03
  A 0.70 0.70 0.0 0 0 463.68 779.33
  L 463.68 768.54
  Q 463.68 767.83 462.97 767.83
  L 459.08 767.83
  Q 458.23 767.83 458.23 766.98
  Z
  M 583.15 747.83
  A 0.47 0.47 0.0 0 0 582.68 747.36
  L 570.05 747.36
  A 0.47 0.47 0.0 0 1 569.58 746.89
  L 569.58 741.42
  A 0.47 0.47 0.0 0 1 570.05 740.95
  L 588.78 740.95
  A 0.47 0.47 0.0 0 0 589.25 740.48
  L 589.25 729.04
  A 0.47 0.47 0.0 0 0 588.78 728.57
  L 557.09 728.57
  A 0.47 0.47 0.0 0 0 556.62 729.05
  L 557.20 779.76
  A 0.47 0.47 0.0 0 0 557.67 780.22
  L 588.57 780.22
  A 0.47 0.47 0.0 0 0 589.04 779.75
  L 589.04 768.10
  A 0.47 0.47 0.0 0 0 588.57 767.63
  L 570.40 767.63
  A 0.47 0.47 0.0 0 1 569.93 767.17
  L 569.86 760.37
  A 0.47 0.47 0.0 0 1 570.33 759.89
  L 582.68 759.89
  A 0.47 0.47 0.0 0 0 583.15 759.42
  L 583.15 747.83
  Z"
/>
<path fill="#ffffff" d="
  M 455.94 502.02
  L 445.31 508.11
  L 434.20 501.83
  Q 433.61 494.36 433.56 480.25
  Q 433.23 386.93 433.67 307.52
  Q 433.69 303.91 433.41 302.02
  Q 433.33 301.51 432.97 301.14
  Q 432.42 300.57 430.70 299.56
  C 378.59 269.06 328.10 239.69 278.35 211.45
  Q 276.31 210.29 275.01 209.32
  C 270.00 205.58 268.64 198.42 272.42 193.39
  Q 273.74 191.62 277.65 189.34
  Q 287.27 183.72 323.43 162.42
  Q 335.24 155.46 347.14 162.36
  Q 424.84 207.43 489.11 245.07
  Q 493.93 247.89 496.25 248.35
  C 502.94 249.68 508.98 245.36 514.44 242.07
  Q 544.56 223.87 583.22 201.98
  Q 584.34 201.34 584.78 200.97
  A 0.57 0.57 0.0 0 0 584.71 200.05
  C 568.74 190.23 551.31 180.41 534.49 170.35
  C 508.83 154.98 477.47 137.53 448.85 120.57
  Q 447.53 119.78 445.73 119.15
  Q 445.24 118.98 444.75 119.18
  Q 440.99 120.73 440.03 121.27
  Q 425.60 129.35 413.57 136.70
  A 0.66 0.66 0.0 0 0 413.52 137.79
  Q 415.77 139.46 417.82 140.64
  Q 438.38 152.50 461.00 166.04
  Q 464.00 167.84 466.37 168.72
  Q 466.82 168.88 467.28 168.75
  Q 488.32 162.92 506.89 168.42
  C 515.05 170.83 524.99 176.83 528.99 184.23
  Q 532.75 191.21 530.68 199.98
  C 528.07 211.02 516.84 218.73 506.33 221.61
  C 491.88 225.57 476.17 225.07 462.60 218.41
  C 450.11 212.28 440.83 199.96 447.95 185.87
  Q 448.58 184.63 447.39 183.91
  Q 423.65 169.46 385.29 147.33
  Q 379.37 143.91 379.28 137.80
  C 379.18 132.02 382.30 129.41 387.33 126.40
  Q 418.41 107.81 431.40 100.17
  C 439.63 95.33 446.52 92.95 455.32 98.48
  Q 466.22 105.33 479.07 112.94
  Q 487.90 118.16 551.05 154.50
  Q 585.66 174.42 609.09 187.95
  Q 612.67 190.02 613.94 191.04
  C 622.21 197.65 619.58 206.77 611.06 211.54
  Q 590.75 222.91 574.90 232.20
  C 554.88 243.93 534.08 255.73 515.66 266.89
  Q 511.19 269.60 506.62 271.33
  Q 496.24 275.26 486.91 269.64
  Q 468.55 258.59 458.61 252.90
  Q 442.86 243.88 380.14 207.38
  Q 361.27 196.39 341.90 184.97
  Q 339.33 183.46 337.09 182.83
  C 333.51 181.83 330.47 184.13 326.98 186.26
  Q 318.23 191.60 304.46 199.84
  A 0.67 0.67 0.0 0 0 304.38 200.93
  Q 305.22 201.59 306.28 202.20
  Q 349.87 227.08 423.13 269.21
  Q 432.20 274.43 444.42 281.17
  Q 450.98 284.79 453.00 287.40
  Q 456.00 291.31 456.01 298.25
  Q 456.06 400.06 455.94 502.02
  Z
  M 506.9100 195.1579
  A 18.40 8.14 -0.1 0 0 488.4958 187.0500
  A 18.40 8.14 -0.1 0 0 470.1100 195.2221
  A 18.40 8.14 -0.1 0 0 488.5242 203.3300
  A 18.40 8.14 -0.1 0 0 506.9100 195.1579
  Z"
/>
<ellipse fill="#021927" cx="0.00" cy="0.00" transform="translate(488.51,195.19) rotate(-0.1)" rx="18.40" ry="8.14"/>
<path fill="#c1e650" d="
  M 445.08 533.52
  L 445.31 508.11
  L 455.94 502.02
  L 486.22 484.78
  A 2.88 2.87 75.4 0 0 487.67 482.30
  Q 487.92 379.31 487.84 307.04
  Q 487.83 293.23 499.49 287.21
  C 503.22 285.28 506.51 284.09 510.25 281.92
  Q 586.22 237.89 601.36 228.90
  C 610.78 223.30 619.54 230.33 619.56 240.26
  Q 619.78 336.44 619.47 423.88
  C 619.44 433.25 614.23 437.26 606.03 441.96
  Q 581.60 455.94 560.64 468.40
  C 556.45 470.89 550.16 470.81 546.42 467.17
  Q 542.58 463.43 542.58 457.50
  C 542.59 421.75 543.05 398.58 542.21 384.40
  A 0.80 0.79 4.4 0 0 541.59 383.68
  C 537.64 382.81 534.35 382.13 531.42 380.26
  C 522.19 374.37 519.89 362.74 520.82 352.28
  Q 522.59 332.30 536.62 317.36
  C 543.20 310.35 551.49 304.90 560.84 303.15
  C 568.81 301.67 577.49 305.10 581.84 311.13
  Q 586.97 318.24 587.46 327.78
  Q 588.41 346.38 577.85 360.36
  Q 573.22 366.51 566.78 372.93
  A 3.41 3.37 -22.6 0 0 565.77 375.34
  L 565.77 437.65
  Q 565.77 438.78 566.75 438.21
  L 595.64 421.53
  A 3.12 3.12 0.0 0 0 597.20 418.83
  L 597.20 259.74
  Q 597.20 258.01 595.71 258.87
  L 512.34 307.01
  A 3.77 3.76 76.3 0 0 510.46 310.11
  Q 510.32 313.68 510.34 318.26
  Q 510.65 399.90 510.41 485.53
  Q 510.38 493.31 506.05 498.45
  Q 503.82 501.10 495.45 505.78
  Q 469.45 520.33 449.04 532.29
  Q 447.15 533.40 445.08 533.52
  Z
  M 545.4973 359.2565
  A 18.48 6.96 118.2 0 0 560.3639 346.2590
  A 18.48 6.96 118.2 0 0 562.9627 326.6835
  A 18.48 6.96 118.2 0 0 548.0961 339.6810
  A 18.48 6.96 118.2 0 0 545.4973 359.2565
  Z"
/>
<path fill="#01b8ab" d="
  M 434.20 501.83
  L 445.31 508.11
  L 445.08 533.52
  Q 441.69 532.58 439.63 531.39
  C 420.56 520.39 405.81 511.95 388.99 502.97
  Q 379.13 497.71 379.14 486.25
  Q 379.18 370.49 378.94 309.60
  A 3.26 3.26 0.0 0 0 377.34 306.81
  Q 329.11 278.49 294.69 259.07
  Q 294.00 258.68 293.03 258.42
  A 0.58 0.57 -82.7 0 0 292.31 258.98
  L 292.31 420.11
  A 2.63 2.62 14.6 0 0 293.66 422.40
  L 323.86 439.13
  Q 325.00 439.76 325.00 438.46
  Q 325.04 408.17 324.28 377.50
  C 324.22 375.17 324.15 374.08 322.63 372.59
  C 310.50 360.66 303.33 347.90 302.43 331.27
  C 302.07 324.79 303.15 316.27 307.33 311.22
  Q 311.46 306.22 316.19 304.69
  Q 329.37 300.42 341.76 308.66
  Q 361.99 322.13 367.87 345.59
  C 369.75 353.10 369.73 364.92 365.72 372.19
  Q 360.24 382.10 347.86 383.82
  Q 346.77 383.97 346.77 385.07
  Q 346.58 429.37 346.38 457.80
  Q 346.35 462.74 343.89 465.88
  C 339.31 471.72 332.13 469.94 326.28 466.47
  Q 303.43 452.91 280.87 440.80
  C 271.23 435.63 269.79 428.67 269.79 418.12
  Q 269.87 287.50 269.83 244.42
  Q 269.82 236.44 271.38 233.45
  Q 274.51 227.40 283.27 228.03
  Q 285.13 228.16 289.30 230.62
  Q 353.97 268.72 390.10 288.61
  Q 397.63 292.76 400.39 299.96
  Q 401.83 303.69 401.77 313.89
  Q 401.25 400.78 401.55 481.98
  Q 401.56 484.58 403.82 485.75
  Q 413.76 490.89 429.52 499.99
  Q 431.75 501.28 434.20 501.83
  Z
  M 345.5508 360.8114
  A 19.37 6.95 61.0 0 0 342.2386 340.5006
  A 19.37 6.95 61.0 0 0 326.7692 326.9286
  A 19.37 6.95 61.0 0 0 330.0814 347.2394
  A 19.37 6.95 61.0 0 0 345.5508 360.8114
  Z"
/>
<ellipse fill="#021927" cx="0.00" cy="0.00" transform="translate(554.23,342.97) rotate(118.2)" rx="18.48" ry="6.96"/>
<ellipse fill="#021927" cx="0.00" cy="0.00" transform="translate(336.16,343.87) rotate(61.0)" rx="19.37" ry="6.95"/>
<path fill="#ffffff" d="
  M 88.60 626.19
  L 88.60 616.91
  A 0.35 0.35 0.0 0 1 88.95 616.56
  L 134.60 616.56
  A 0.35 0.35 0.0 0 1 134.95 616.91
  L 134.95 626.24
  A 0.35 0.35 0.0 0 1 134.60 626.59
  L 117.32 626.59
  A 0.35 0.35 0.0 0 0 116.97 626.94
  L 116.97 686.68
  A 0.35 0.35 0.0 0 1 116.62 687.03
  L 107.66 687.03
  A 0.35 0.35 0.0 0 1 107.31 686.68
  L 107.31 626.89
  A 0.35 0.35 0.0 0 0 106.96 626.54
  L 88.95 626.54
  A 0.35 0.35 0.0 0 1 88.60 626.19
  Z"
/>
<rect fill="#ffffff" x="-4.84" y="-35.33" transform="translate(289.44,651.72) rotate(0.4)" width="9.68" height="70.66" rx="0.34"/>
<path fill="#ffffff" d="
  M 573.90 668.73
  A 2.05 2.05 0.0 0 0 574.50 670.18
  L 581.66 677.34
  A 0.49 0.47 -20.9 0 0 582.01 677.49
  L 590.85 677.38
  A 2.70 2.66 21.1 0 0 592.78 676.54
  L 602.47 666.13
  A 0.48 0.48 0.0 0 1 603.16 666.12
  L 609.81 672.77
  Q 610.22 673.19 609.83 673.61
  L 597.68 686.63
  Q 597.31 687.03 596.78 687.03
  L 577.86 687.03
  A 2.59 2.55 67.4 0 1 576.03 686.26
  Q 571.68 681.86 566.48 676.36
  C 564.97 674.76 564.06 673.76 564.06 671.47
  Q 564.10 643.84 564.18 629.24
  A 2.81 2.76 70.3 0 1 565.15 627.14
  L 576.47 617.44
  A 3.87 3.85 24.2 0 1 578.93 616.51
  L 595.76 616.32
  Q 597.69 616.29 598.98 617.73
  L 609.84 629.86
  A 0.48 0.47 -44.1 0 1 609.82 630.52
  L 603.28 637.06
  A 0.95 0.94 46.0 0 1 601.92 637.03
  Q 597.96 632.70 595.05 629.28
  C 594.22 628.31 593.86 626.26 592.13 626.21
  Q 586.13 626.00 582.02 626.13
  A 2.97 2.92 -68.8 0 0 579.94 627.07
  L 574.09 633.35
  A 0.70 0.69 67.2 0 0 573.90 633.83
  L 573.90 668.73
  Z"
/>
<path fill="#ffffff" d="
  M 788.01 627.07
  A 0.64 0.64 0.0 0 0 787.50 626.05
  L 763.68 626.05
  Q 763.04 626.05 763.03 625.40
  L 762.94 617.18
  Q 762.93 616.56 763.55 616.55
  L 799.01 616.14
  Q 799.63 616.14 799.63 616.76
  L 799.63 628.42
  Q 799.63 628.88 799.33 629.24
  L 792.11 638.02
  A 0.72 0.71 42.2 0 0 792.16 638.98
  L 799.04 645.86
  Q 799.45 646.27 799.47 646.85
  Q 800.02 662.22 799.57 673.25
  Q 799.52 674.51 797.99 676.24
  Q 792.75 682.13 787.31 686.55
  Q 786.88 686.90 786.33 686.90
  L 776.90 686.90
  A 0.77 0.77 0.0 0 1 776.33 686.65
  L 764.49 674.10
  Q 764.18 673.78 764.46 673.44
  L 769.89 666.84
  A 0.53 0.53 0.0 0 1 770.66 666.79
  L 781.46 676.86
  A 0.82 0.81 44.7 0 0 782.57 676.86
  C 784.62 674.96 789.96 670.48 789.94 667.80
  Q 789.88 653.96 789.89 651.68
  Q 789.90 650.71 789.22 650.03
  L 779.26 640.08
  Q 778.77 639.58 779.18 639.02
  L 788.01 627.07
  Z"
/>
<path fill="#ffffff" d="
  M 223.28 643.20
  A 0.87 0.86 -90.0 0 0 222.42 644.07
  L 222.42 686.76
  Q 222.42 687.00 222.18 687.00
  L 213.19 687.00
  Q 212.86 687.00 212.86 686.67
  L 212.86 617.51
  Q 212.86 616.89 213.49 616.89
  L 244.04 616.89
  Q 244.47 616.89 244.84 617.09
  Q 245.89 617.68 245.98 617.77
  Q 250.93 622.64 257.60 628.33
  A 1.54 1.54 0.0 0 1 258.14 629.50
  L 258.14 686.71
  A 0.32 0.32 0.0 0 1 257.82 687.03
  L 248.82 687.03
  Q 248.60 687.03 248.60 686.80
  L 248.60 644.02
  A 0.82 0.82 0.0 0 0 247.78 643.20
  L 223.28 643.20
  Z
  M 222.83 633.19
  A 0.60 0.60 0.0 0 0 223.43 633.79
  L 245.86 633.79
  A 0.60 0.60 0.0 0 0 246.29 632.77
  L 240.57 627.05
  A 0.60 0.60 0.0 0 0 240.14 626.87
  L 223.43 626.87
  A 0.60 0.60 0.0 0 0 222.83 627.47
  L 222.83 633.19
  Z"
/>
<path fill="#ffffff" d="
  M 636.47 629.42
  L 647.88 617.18
  Q 648.25 616.78 648.79 616.78
  L 659.12 616.66
  A 3.00 3.00 0.0 0 1 661.39 617.65
  L 671.88 629.22
  A 0.24 0.23 29.4 0 1 671.92 629.35
  L 671.92 674.08
  Q 671.92 674.61 671.56 675.00
  L 660.59 686.76
  Q 660.27 687.11 659.80 687.11
  L 649.18 687.11
  Q 648.64 687.11 648.25 686.73
  Q 642.65 681.27 637.62 675.47
  Q 636.20 673.84 636.15 671.74
  Q 636.01 665.72 636.11 630.33
  A 1.33 1.31 67.1 0 1 636.47 629.42
  Z
  M 658.34 630.35
  Q 658.67 629.84 658.23 629.42
  L 655.73 627.09
  A 1.97 1.96 -41.2 0 0 653.25 626.93
  C 651.54 628.15 646.06 632.53 646.03 635.31
  Q 645.97 641.00 645.90 643.64
  A 0.39 0.39 0.0 0 0 646.54 643.95
  Q 653.25 638.20 658.34 630.35
  Z
  M 646.39 669.37
  L 654.14 677.91
  A 0.63 0.62 44.7 0 0 655.07 677.91
  L 661.95 670.08
  A 1.28 1.26 -25.0 0 0 662.26 669.25
  L 662.26 644.02
  A 0.40 0.39 75.7 0 0 661.68 643.67
  Q 659.48 644.86 657.50 647.00
  Q 646.87 658.46 646.05 659.26
  Q 645.62 659.68 645.63 660.08
  L 645.71 667.63
  A 2.63 2.63 0.0 0 0 646.39 669.37
  Z"
/>
<path fill="#ffffff" d="
  M 710.33 687.00
  L 700.39 687.00
  A 0.33 0.33 0.0 0 1 700.06 686.67
  L 700.06 634.51
  A 0.33 0.33 0.0 0 1 700.39 634.18
  L 726.12 634.18
  A 0.33 0.33 0.0 0 0 726.45 633.85
  L 726.45 616.88
  A 0.33 0.33 0.0 0 1 726.78 616.55
  L 735.72 616.55
  A 0.33 0.33 0.0 0 1 736.05 616.88
  L 736.05 686.57
  A 0.33 0.33 0.0 0 1 735.72 686.90
  L 726.87 686.90
  A 0.33 0.33 0.0 0 1 726.58 686.73
  L 720.28 675.80
  A 0.33 0.33 0.0 0 0 719.74 675.76
  L 710.59 686.88
  A 0.33 0.33 0.0 0 1 710.33 687.00
  Z
  M 722.53 659.05
  C 723.31 658.27 724.92 657.75 725.71 657.27
  Q 726.16 656.99 726.16 656.46
  L 726.16 643.41
  Q 726.16 642.92 725.67 642.92
  L 714.10 642.92
  A 0.92 0.92 0.0 0 0 713.29 643.40
  L 709.78 649.72
  A 2.75 2.72 -31.1 0 0 709.45 651.02
  L 709.45 672.01
  A 0.38 0.38 0.0 0 0 710.01 672.34
  Q 710.57 672.04 711.13 671.39
  Q 716.72 664.87 722.53 659.05
  Z"
/>
<path fill="#ffffff" d="
  M 402.47 630.32
  Q 402.48 629.50 401.91 630.10
  L 391.79 640.96
  Q 391.30 641.48 390.80 640.97
  L 385.37 635.54
  Q 384.17 634.34 385.34 633.11
  Q 386.34 632.06 387.94 630.18
  Q 388.03 630.08 400.32 617.34
  Q 401.17 616.46 402.94 616.60
  C 405.81 616.82 408.59 616.76 411.48 616.83
  Q 411.87 616.84 411.87 617.23
  L 411.87 686.79
  Q 411.87 687.06 411.54 687.06
  L 402.24 687.06
  Q 402.12 687.06 402.12 686.93
  L 402.47 630.32
  Z"
/>
<path fill="#021927" d="
  M 658.34 630.35
  Q 653.25 638.20 646.54 643.95
  A 0.39 0.39 0.0 0 1 645.90 643.64
  Q 645.97 641.00 646.03 635.31
  C 646.06 632.53 651.54 628.15 653.25 626.93
  A 1.97 1.96 -41.2 0 1 655.73 627.09
  L 658.23 629.42
  Q 658.67 629.84 658.34 630.35
  Z"
/>
<path fill="#021927" d="
  M 222.83 633.19
  L 222.83 627.47
  A 0.60 0.60 0.0 0 1 223.43 626.87
  L 240.14 626.87
  A 0.60 0.60 0.0 0 1 240.57 627.05
  L 246.29 632.77
  A 0.60 0.60 0.0 0 1 245.86 633.79
  L 223.43 633.79
  A 0.60 0.60 0.0 0 1 222.83 633.19
  Z"
/>
<path fill="#ffffff" d="
  M 346.79 648.90
  Q 345.90 648.71 344.90 649.67
  C 343.57 650.94 342.61 652.27 341.53 653.29
  Q 336.44 658.09 330.37 664.21
  Q 329.99 664.59 329.99 665.12
  L 329.99 686.67
  Q 329.99 687.07 329.59 687.07
  L 321.14 687.07
  Q 320.70 687.07 320.70 686.63
  L 320.70 633.76
  A 0.57 0.56 -0.5 0 1 321.26 633.20
  L 326.92 633.14
  A 2.36 2.36 0.0 0 1 328.88 634.13
  L 335.33 643.18
  A 1.01 1.00 48.5 0 0 336.88 643.28
  L 346.05 633.46
  A 0.87 0.87 0.0 0 1 346.70 633.17
  L 356.65 633.05
  Q 356.96 633.05 356.96 633.36
  L 356.96 686.78
  Q 356.96 687.13 356.62 687.13
  L 347.62 687.13
  Q 347.34 687.13 347.34 686.85
  L 347.34 649.58
  Q 347.34 649.02 346.79 648.90
  Z"
/>
<path fill="#ffffff" d="
  M 450.28 645.56
  A 0.35 0.35 0.0 0 0 450.85 645.83
  Q 458.14 640.22 464.22 633.50
  Q 464.54 633.13 465.03 633.13
  L 474.24 633.13
  Q 474.78 633.13 474.78 633.67
  L 474.78 686.87
  Q 474.78 687.24 474.41 687.24
  L 465.41 687.24
  Q 465.06 687.24 465.06 686.89
  L 465.06 650.20
  A 0.96 0.96 0.0 0 0 463.46 649.49
  Q 456.41 655.83 450.60 661.70
  C 449.89 662.42 449.10 662.62 448.33 663.14
  Q 447.85 663.46 447.85 664.03
  L 447.85 686.29
  Q 447.85 687.18 446.95 687.18
  L 438.87 687.18
  Q 438.32 687.18 438.32 686.63
  L 438.32 633.65
  A 0.50 0.50 0.0 0 1 438.82 633.15
  L 449.53 633.15
  Q 450.14 633.15 450.15 633.76
  L 450.28 645.56
  Z"
/>
<path fill="#ffffff" d="
  M 523.58 686.99
  L 500.93 686.99
  Q 500.16 686.99 500.16 686.22
  Q 500.23 674.56 500.20 648.00
  Q 500.20 646.10 501.60 644.86
  Q 508.85 638.45 512.44 634.54
  A 2.43 2.40 -68.7 0 1 514.19 633.76
  L 522.91 633.65
  A 3.35 3.34 67.1 0 1 525.29 634.62
  L 535.66 645.00
  A 3.02 2.99 -67.9 0 1 536.55 647.14
  L 536.55 690.10
  A 2.50 2.46 -22.8 0 1 535.82 691.85
  L 523.95 703.72
  Q 523.54 704.13 522.97 704.17
  Q 511.10 704.99 501.03 704.34
  Q 500.18 704.28 500.18 703.43
  L 500.18 695.43
  Q 500.18 694.57 501.04 694.56
  L 516.99 694.37
  Q 519.33 694.35 520.92 692.64
  L 524.41 688.90
  Q 526.18 686.99 523.58 686.99
  Z
  M 526.16 676.78
  Q 526.28 676.77 526.28 676.67
  L 526.28 651.95
  A 2.90 2.88 -64.9 0 0 525.62 650.11
  L 520.05 643.40
  A 1.26 1.25 -42.0 0 0 518.20 643.31
  Q 514.09 647.37 511.89 649.38
  Q 510.33 650.81 510.33 652.56
  Q 510.36 663.41 510.07 671.59
  A 1.30 1.26 27.3 0 0 510.36 672.45
  L 513.82 676.64
  A 2.56 2.56 0.0 0 0 516.01 677.57
  L 526.16 676.78
  Z"
/>
<path fill="#ffffff" d="
  M 170.87 640.31
  A 0.75 0.75 0.0 0 0 172.15 640.84
  L 179.26 633.73
  A 0.44 0.44 0.0 0 1 179.91 633.76
  L 185.21 640.03
  Q 185.38 640.23 185.21 640.43
  Q 178.11 648.79 173.14 654.96
  C 172.32 655.98 171.66 656.09 170.77 656.79
  Q 170.36 657.12 170.36 657.64
  L 170.36 686.81
  Q 170.36 687.04 170.13 687.04
  L 161.29 687.04
  Q 161.08 687.04 161.08 686.84
  L 161.08 635.47
  Q 161.08 634.03 162.52 634.03
  L 169.44 634.03
  Q 170.87 634.03 170.87 635.45
  L 170.87 640.31
  Z"
/>
<path fill="#021927" d="
  M 722.53 659.05
  Q 716.72 664.87 711.13 671.39
  Q 710.57 672.04 710.01 672.34
  A 0.38 0.38 0.0 0 1 709.45 672.01
  L 709.45 651.02
  A 2.75 2.72 -31.1 0 1 709.78 649.72
  L 713.29 643.40
  A 0.92 0.92 0.0 0 1 714.10 642.92
  L 725.67 642.92
  Q 726.16 642.92 726.16 643.41
  L 726.16 656.46
  Q 726.16 656.99 725.71 657.27
  C 724.92 657.75 723.31 658.27 722.53 659.05
  Z"
/>
<path fill="#021927" d="
  M 526.16 676.78
  L 516.01 677.57
  A 2.56 2.56 0.0 0 1 513.82 676.64
  L 510.36 672.45
  A 1.30 1.26 27.3 0 1 510.07 671.59
  Q 510.36 663.41 510.33 652.56
  Q 510.33 650.81 511.89 649.38
  Q 514.09 647.37 518.20 643.31
  A 1.26 1.25 -42.0 0 1 520.05 643.40
  L 525.62 650.11
  A 2.90 2.88 -64.9 0 1 526.28 651.95
  L 526.28 676.67
  Q 526.28 676.77 526.16 676.78
  Z"
/>
<path fill="#021927" d="
  M 654.14 677.91
  L 646.39 669.37
  A 2.63 2.63 0.0 0 1 645.71 667.63
  L 645.63 660.08
  Q 645.62 659.68 646.05 659.26
  Q 646.87 658.46 657.50 647.00
  Q 659.48 644.86 661.68 643.67
  A 0.40 0.39 75.7 0 1 662.26 644.02
  L 662.26 669.25
  A 1.28 1.26 -25.0 0 1 661.95 670.08
  L 655.07 677.91
  A 0.63 0.62 44.7 0 1 654.14 677.91
  Z"
/>
<path fill="#01b8ab" d="
  M 190.45 728.13
  A 6.18 6.18 0.0 0 1 196.65 734.29
  L 196.78 771.89
  A 7.88 7.34 89.8 0 1 189.47 779.80
  L 164.07 779.88
  A 7.88 7.34 89.8 0 1 156.70 772.03
  L 156.57 734.43
  A 6.18 6.18 0.0 0 1 162.73 728.23
  L 190.45 728.13
  Z
  M 171.87 740.87
  A 1.38 1.38 0.0 0 0 170.51 742.25
  L 170.51 765.61
  A 1.38 1.38 0.0 0 0 171.89 766.99
  L 182.20 766.99
  A 1.38 1.38 0.0 0 0 183.58 765.59
  L 183.32 742.12
  A 1.38 1.38 0.0 0 0 181.92 740.76
  L 171.87 740.87
  Z"
/>
<path fill="#01b8ab" d="
  M 114.55 750.11
  L 114.55 761.53
  A 0.34 0.34 0.0 0 1 114.21 761.87
  L 101.87 762.02
  A 0.34 0.34 0.0 0 0 101.53 762.36
  L 101.53 779.60
  A 0.34 0.34 0.0 0 1 101.19 779.94
  L 89.13 779.94
  A 0.34 0.34 0.0 0 1 88.79 779.60
  L 88.20 728.82
  A 0.34 0.34 0.0 0 1 88.54 728.48
  L 120.82 728.48
  A 0.34 0.34 0.0 0 1 121.16 728.82
  L 121.16 740.88
  A 0.34 0.34 0.0 0 1 120.82 741.22
  L 101.39 741.22
  A 0.34 0.34 0.0 0 0 101.05 741.56
  L 101.05 749.43
  A 0.34 0.34 0.0 0 0 101.39 749.77
  L 114.21 749.77
  A 0.34 0.34 0.0 0 1 114.55 750.11
  Z"
/>
<path fill="#01b8ab" d="
  M 247.19 767.75
  L 247.19 779.48
  Q 247.19 779.83 246.84 779.83
  L 234.89 779.83
  A 0.74 0.74 0.0 0 1 234.15 779.09
  L 234.15 729.18
  A 0.81 0.81 0.0 0 1 234.96 728.37
  Q 254.24 728.33 262.74 728.47
  Q 265.86 728.52 267.90 730.80
  Q 269.22 732.27 269.15 735.63
  Q 269.05 740.71 269.41 752.51
  Q 269.45 753.64 269.68 754.41
  Q 269.85 754.97 270.25 755.39
  C 271.91 757.11 272.84 758.00 272.96 760.55
  Q 273.31 767.73 273.19 779.61
  Q 273.19 779.86 272.94 779.86
  L 260.47 779.86
  A 0.56 0.56 0.0 0 1 259.91 779.30
  L 259.91 767.82
  A 0.77 0.77 0.0 0 0 259.14 767.05
  L 247.88 767.05
  A 0.70 0.69 90.0 0 0 247.19 767.75
  Z
  M 257.2262 743.2341
  A 1.15 1.15 0.0 0 0 256.0702 742.0902
  L 248.4703 742.1300
  A 1.15 1.15 0.0 0 0 247.3263 743.2860
  L 247.3738 752.3659
  A 1.15 1.15 0.0 0 0 248.5298 753.5098
  L 256.1297 753.4700
  A 1.15 1.15 0.0 0 0 257.2737 752.3140
  L 257.2262 743.2341
  Z"
/>
<path fill="#01b8ab" d="
  M 644.78 754.38
  A 1.55 1.54 -58.7 0 0 646.95 753.85
  C 649.09 750.11 651.07 746.84 651.29 742.01
  Q 651.55 736.46 651.03 728.86
  A 0.44 0.43 -2.4 0 1 651.47 728.39
  L 663.94 728.39
  A 0.38 0.38 0.0 0 1 664.32 728.77
  Q 664.32 737.35 664.31 746.00
  Q 664.31 747.34 661.88 751.62
  Q 658.77 757.08 655.34 763.28
  Q 652.56 768.30 652.13 771.24
  Q 651.50 775.58 652.27 779.54
  Q 652.38 780.09 651.82 780.09
  L 639.28 780.09
  A 0.49 0.48 0.0 0 1 638.79 779.61
  Q 638.73 775.29 638.60 770.89
  Q 638.55 768.95 636.87 766.15
  Q 634.36 761.98 626.52 748.88
  A 6.27 6.25 29.7 0 1 625.64 745.68
  L 625.64 729.37
  A 0.94 0.93 90.0 0 1 626.57 728.43
  L 638.53 728.43
  A 0.34 0.34 0.0 0 1 638.87 728.79
  Q 638.55 735.32 638.50 742.26
  Q 638.47 745.20 639.57 746.91
  C 641.25 749.51 643.39 753.48 644.78 754.38
  Z"
/>
<path fill="#01b8ab" d="
  M 715.64 767.49
  L 734.43 767.49
  A 0.23 0.23 0.0 0 1 734.66 767.72
  L 734.66 779.28
  Q 734.66 779.97 733.97 779.97
  L 703.48 779.97
  Q 702.50 779.97 702.50 778.99
  L 702.50 728.92
  A 0.50 0.49 -0.0 0 1 703.00 728.43
  L 735.00 728.43
  A 0.31 0.31 0.0 0 1 735.31 728.74
  L 735.31 740.26
  Q 735.31 740.54 735.04 740.54
  L 715.86 740.54
  A 1.32 1.31 -0.0 0 0 714.54 741.85
  L 714.54 746.02
  A 1.19 1.18 0.0 0 0 715.73 747.20
  L 727.24 747.20
  Q 727.82 747.20 727.81 747.78
  C 727.78 749.83 727.21 755.53 728.08 758.96
  A 0.61 0.60 82.9 0 1 727.50 759.72
  L 715.78 759.72
  Q 714.74 759.72 714.74 760.75
  L 714.74 766.59
  Q 714.74 767.49 715.64 767.49
  Z"
/>
<path fill="#01b8ab" d="
  M 796.96 766.78
  A 0.84 0.84 0.0 0 0 797.45 765.25
  Q 795.37 763.78 794.06 763.17
  Q 782.47 757.79 773.43 753.33
  C 770.21 751.75 770.73 750.41 770.58 746.75
  Q 770.35 740.63 770.42 734.52
  C 770.48 730.05 772.22 728.40 776.62 728.39
  Q 792.20 728.36 806.05 728.47
  A 1.28 1.27 0.0 0 1 807.32 729.73
  L 807.46 741.49
  Q 807.47 742.28 806.67 742.23
  Q 797.42 741.63 790.50 741.19
  Q 787.21 740.98 786.06 741.13
  Q 781.04 741.75 785.21 744.64
  C 790.84 748.53 801.50 752.16 805.80 753.67
  Q 809.20 754.87 809.41 758.41
  Q 809.84 765.78 809.60 773.53
  Q 809.39 780.33 802.47 780.14
  Q 788.59 779.77 772.36 780.28
  A 0.99 0.99 0.0 0 1 771.34 779.29
  L 771.34 767.44
  Q 771.34 766.78 772.00 766.78
  L 796.96 766.78
  Z"
/>
<path fill="#01b8ab" d="
  M 377.53 768.97
  L 377.65 779.29
  A 0.70 0.70 0.0 0 1 376.96 780.00
  L 364.60 780.14
  A 0.78 0.77 -0.7 0 1 363.81 779.38
  L 363.53 754.93
  A 2.78 2.74 59.1 0 1 363.86 753.58
  L 376.78 729.07
  Q 376.99 728.67 377.45 728.66
  L 387.05 728.55
  Q 388.74 728.53 389.58 730.00
  Q 395.54 740.47 401.30 750.22
  C 402.37 752.02 403.00 754.71 402.90 757.18
  Q 402.52 766.13 402.89 779.06
  A 0.91 0.91 0.0 0 1 401.98 780.00
  L 390.12 780.00
  A 0.58 0.58 0.0 0 1 389.54 779.42
  L 389.54 768.87
  A 0.85 0.85 0.0 0 0 388.68 768.02
  L 378.34 768.14
  A 0.83 0.82 89.7 0 0 377.53 768.97
  Z
  M 388.89 754.14
  C 387.01 750.51 386.29 746.49 384.35 743.49
  Q 383.86 742.73 383.41 742.84
  A 1.75 0.92 -76.4 0 0 382.46 743.92
  L 378.42 754.20
  A 0.69 0.69 0.0 0 0 379.07 755.14
  L 388.28 755.14
  A 0.69 0.69 0.0 0 0 388.89 754.14
  Z"
/>
<path fill="#01b8ab" d="
  M 459.08 767.83
  L 462.97 767.83
  Q 463.68 767.83 463.68 768.54
  L 463.68 779.33
  A 0.70 0.70 0.0 0 1 462.98 780.03
  L 439.95 780.03
  A 0.74 0.62 -90.0 0 1 439.33 779.29
  L 439.33 768.25
  A 1.05 1.04 -2.1 0 1 440.30 767.21
  L 443.05 766.99
  Q 443.64 766.95 443.68 766.35
  Q 444.53 754.13 443.74 742.17
  Q 443.68 741.23 442.73 741.23
  L 439.06 741.23
  Q 438.35 741.23 438.35 740.52
  L 438.35 729.26
  A 0.65 0.65 0.0 0 1 439.00 728.61
  L 464.14 728.61
  Q 464.63 728.61 464.63 729.10
  L 464.63 740.23
  A 0.84 0.80 -0.0 0 1 463.79 741.03
  L 459.33 741.03
  A 1.10 1.10 0.0 0 0 458.23 742.13
  L 458.23 766.98
  Q 458.23 767.83 459.08 767.83
  Z"
/>
<path fill="#01b8ab" d="
  M 583.15 747.83
  L 583.15 759.42
  A 0.47 0.47 0.0 0 1 582.68 759.89
  L 570.33 759.89
  A 0.47 0.47 0.0 0 0 569.86 760.37
  L 569.93 767.17
  A 0.47 0.47 0.0 0 0 570.40 767.63
  L 588.57 767.63
  A 0.47 0.47 0.0 0 1 589.04 768.10
  L 589.04 779.75
  A 0.47 0.47 0.0 0 1 588.57 780.22
  L 557.67 780.22
  A 0.47 0.47 0.0 0 1 557.20 779.76
  L 556.62 729.05
  A 0.47 0.47 0.0 0 1 557.09 728.57
  L 588.78 728.57
  A 0.47 0.47 0.0 0 1 589.25 729.04
  L 589.25 740.48
  A 0.47 0.47 0.0 0 1 588.78 740.95
  L 570.05 740.95
  A 0.47 0.47 0.0 0 0 569.58 741.42
  L 569.58 746.89
  A 0.47 0.47 0.0 0 0 570.05 747.36
  L 582.68 747.36
  A 0.47 0.47 0.0 0 1 583.15 747.83
  Z"
/>
<path fill="#021927" d="
  M 171.87 740.87
  L 181.92 740.76
  A 1.38 1.38 0.0 0 1 183.32 742.12
  L 183.58 765.59
  A 1.38 1.38 0.0 0 1 182.20 766.99
  L 171.89 766.99
  A 1.38 1.38 0.0 0 1 170.51 765.61
  L 170.51 742.25
  A 1.38 1.38 0.0 0 1 171.87 740.87
  Z"
/>
<rect fill="#021927" x="-4.95" y="-5.69" transform="translate(252.30,747.80) rotate(-0.3)" width="9.90" height="11.38" rx="1.15"/>
<path fill="#021927" d="
  M 384.35 743.49
  C 386.29 746.49 387.01 750.51 388.89 754.14
  A 0.69 0.69 0.0 0 1 388.28 755.14
  L 379.07 755.14
  A 0.69 0.69 0.0 0 1 378.42 754.20
  L 382.46 743.92
  A 1.75 0.92 -76.4 0 1 383.41 742.84
  Q 383.86 742.73 384.35 743.49
  Z"
/>
</svg>
